<?xml version="1.0" encoding="UTF-8"?>
<svg id="Layer_1" data-name="Layer 1" xmlns="http://www.w3.org/2000/svg" version="1.1" viewBox="0 0 489.4 496.6">
  <defs>
    <style>
      .cls-1 {
        fill: #a30000;
      }

      .cls-1, .cls-2 {
        stroke-width: 0px;
      }

      .cls-2 {
        fill: #fff;
      }
    </style>
  </defs>
  <path class="cls-1" d="M244.6,0c129.8-.8,244.6,103.4,244.8,244.3.2,140.3-113.7,244.4-243.5,245C115.2,489.9.2,385.9,0,245.2-.2,103.6,112.8,1.1,244.6,0ZM287.1,294.4c2.1,1.9,3.9,3.3,5.5,4.9,11,10.9,21.9,22,33.1,32.7,2.1,2,6.7,4.3,8.1,3.4,2.3-1.6,4-5.6,4.1-8.6.5-9.6.3-19.3.2-28.9,0-3.8,0-7.5-.4-11.3-2.1-19.8-12.8-33.2-31.4-40.6.6-3.3,1.2-6.2,1.7-9.2,3.8-22.3,6-44.8,1.4-67.2-8.3-40.2-30.4-72.7-59.2-101.1-4.2-4.1-7.7-3.7-11.4.3-5.9,6.4-12.1,12.5-17.6,19.2-31.3,38.4-49.7,81-42,131.8,1.3,8.7,2.4,17.4,3.5,26.2-1.3.6-2.4,1.2-3.4,1.7-15.5,7.4-25.6,19.2-26.9,36.6-1.1,14.3-1,28.6-.9,42.9,0,2.8,1.8,7.1,3.9,8,2.1.8,6.2-1.1,8.3-3.1,11.2-10.7,22-21.8,33.1-32.8,1.7-1.7,3.7-3.2,5.8-5.1,11,14.9,23,27.4,42.1,27.4,19.4,0,31.3-12.9,42.5-27.4Z"/>
  <path class="cls-2" d="M287.1,294.4c-11.2,14.4-23.1,27.4-42.5,27.4-19.1,0-31.1-12.5-42.1-27.4-2.1,1.9-4.1,3.4-5.8,5.1-11,10.9-21.8,22.1-33.1,32.8-2.1,2-6.2,3.9-8.3,3.1-2.1-.8-3.9-5.2-3.9-8,0-14.3-.2-28.7.9-42.9,1.3-17.5,11.4-29.2,26.9-36.6,1-.5,2.1-1,3.4-1.7-1.2-8.7-2.2-17.5-3.5-26.2-7.6-50.9,10.7-93.5,42-131.8,5.5-6.7,11.7-12.8,17.6-19.2,3.7-4,7.2-4.4,11.4-.3,28.8,28.4,50.9,60.9,59.2,101.1,4.6,22.3,2.4,44.8-1.4,67.2-.5,3-1.1,5.9-1.7,9.2,18.6,7.4,29.3,20.8,31.4,40.6.4,3.7.4,7.5.4,11.3,0,9.6.3,19.3-.2,28.9-.2,3.1-1.8,7.1-4.1,8.6-1.4.9-6-1.4-8.1-3.4-11.2-10.7-22.1-21.8-33.1-32.7-1.6-1.6-3.4-3.1-5.5-4.9ZM244.2,190c14.3.2,25.3-10.3,25.5-24.3.2-14.5-10.7-25.8-24.9-25.8-14,0-25,10.9-25.1,24.9,0,14.3,10.4,25.1,24.5,25.2Z"/>
  <path class="cls-1" d="M244.2,190c-14.2-.2-24.6-10.9-24.5-25.2,0-14,11.1-24.9,25.1-24.9,14.2,0,25.1,11.4,24.9,25.8-.2,14-11.2,24.5-25.5,24.3Z"/>
</svg>