<?xml version="1.0" encoding="UTF-8"?>
<svg id="Layer_1" data-name="Layer 1" xmlns="http://www.w3.org/2000/svg" version="1.1" viewBox="0 0 114.7 30.5">
  <defs>
    <style>
      .cls-1 {
        fill: #d5c589;
      }

      .cls-1, .cls-2, .cls-3, .cls-4, .cls-5, .cls-6, .cls-7, .cls-8, .cls-9, .cls-10, .cls-11, .cls-12 {
        stroke-width: 0px;
      }

      .cls-2 {
        fill: #ba9c1c;
      }

      .cls-3 {
        fill: #c3a934;
      }

      .cls-4 {
        fill: #bb9e14;
      }

      .cls-5 {
        fill: #bfa42b;
      }

      .cls-6 {
        fill: #ccb65e;
      }

      .cls-7 {
        fill: #d2a900;
      }

      .cls-8 {
        fill: #c9b150;
      }

      .cls-9 {
        fill: #cbb246;
      }

      .cls-10 {
        fill: #e0cdcc;
      }

      .cls-11 {
        fill: #070b03;
      }

      .cls-12 {
        fill: #bf9c06;
      }
    </style>
  </defs>
  <path class="cls-8" d="M11,19.7v2c-1.8.5-3.9.5-4.7-1.2-.9-1.8-.8-3.9.6-5.9,2.1-2.9,4.9-5,7.7-7.1.4,1.5-.4,2.6-.9,3.9-.9,2.7-3.8,4.9-2.7,8.2h0Z"/>
  <path class="cls-3" d="M11,19.7c-1.1-3.3,1.8-5.5,2.7-8.2.5-1.3,1.3-2.4.9-3.9h.1c.9.3,1.7,0,2.1-.8.8-1.1,2-.7,3.1-.8,1.5,1.5,3.4.6,5,1,.3.3.6.6.9.9v.9h-2.1c-2.2,1.7-6.4-.4-7.2,3.9h-.8c-2.6.2-1.7,2.5-2.2,3.9-1.1.8-2.2,1.6-2.7,3h.2Z"/>
  <path class="cls-2" d="M102.2,22.3c-1.7-2.5-4.1-3.9-6.9-4.7,2.5-.8,1.3-3.7,3-4.9.3,1.4-.5,3.3,1.8,3.8,1.3.3,2.1-.4,2.3-1.7,2,.2,2.8,2,4.1,3.1-.7,2.1-2.4,3.4-4.2,4.5h-.1Z"/>
  <path class="cls-9" d="M106.4,17.8c-1.3-1.1-2.1-2.9-4.1-3.1v-4.1c1.9.2,3.6.2,4.1-2.1.9,3.1,3,6.2,0,9.3Z"/>
  <path class="cls-9" d="M24.9,7c-1.7-.4-3.6.5-5-1,7-.3,14.1-1.6,21,.7-3.7,0-7.4,0-11.2.2h-4.8Z"/>
  <path class="cls-2" d="M106.5,8.5c-.5,2.3-2.3,2.3-4.1,2.1v-3.8c.3-.3.7-.6,1-1,.7.6,1.4,1.2,2.1,1.8.3.3.7.7,1,1v-.2c0,0,0,0,0,0Z"/>
  <path class="cls-7" d="M84.4,5.9c-4.6,1.6-9.3,1.6-13.9,0h13.9Z"/>
  <path class="cls-7" d="M103.2,5.9c-.3.3-.7.6-1,1-2.6-.5-5.5.9-8-1,3-.3,6-.4,9,0Z"/>
  <path class="cls-7" d="M92.3,5.9c-2,1.4-4,1.5-6,0h6Z"/>
  <path class="cls-7" d="M68.5,5.9c-1,1.2-2,1.2-3,0h3Z"/>
  <path class="cls-8" d="M16.8,6.8c-.5.9-1.2,1-2.1.9.4-1,1.3-.8,2.1-.9Z"/>
  <path class="cls-9" d="M106.3,8.7c-.3-.3-.7-.7-1-1,.6,0,1,.3,1,1Z"/>
  <path class="cls-6" d="M98.3,12.7c-1.7,1.2-.5,4.2-3,4.9-.9-1.5-1.9-3.1-3-.1-1.9-1.8-4.5-2.3-6.9-2.9v-2.7c3-1.4,6.7-.2,9.5-2.7,1.5-1.3,1.4,2.4,3.2,1.7,0,.6,0,1.3,0,1.9h.1Z"/>
  <path class="cls-9" d="M81.4,18.7c0,1.9-1.8,2.1-3,2.9-3.1-.4-3-2.1-2-4.3v-4.6c1.3-1.5,1.8,0,2.4.7.9,1.2,1.8,2.2,3.5,1.2.4.7.7,1.4,1.1,2.1h0c-1.3,0-1.9.7-1.9,2h0Z"/>
  <path class="cls-4" d="M76.4,17.3c-1,2.2-1,4,2,4.3-2.8,1.8-6,.6-8.9.9-.4-.4-.7-1.1-1.2-1.2-.8-.2-.7.7-.8,1.2h-1c-.3-1-.7-2-1-2.9.3-1.6,1.1-2.4,2.6-1.3.8.6,1.4,1.4,2.3.3,1.4-.4,2.8-.8,4.1-1.2.6,0,1.2,0,1.8-.1h0Z"/>
  <path class="cls-1" d="M23.7,21.4c-2,.2-1.5-2.1-2.7-2.6-1.7-1.7-3.2-3.5-3.2-6.1,2.1,0,4.3,2.7,6.4,0,0,2.1,3.3,3.3,1.7,5.9-1.3.5-1.8,1.7-2.1,2.9h0Z"/>
  <path class="cls-2" d="M85.4,14.6c2.5.7,5,1.1,6.9,2.9-3.8,3.3-7.3,3.7-8.9,1.1v-1.9h0c1.3,0,1.9-.8,2-2h0Z"/>
  <path class="cls-9" d="M25.7,18.6c1.6-2.6-1.6-3.8-1.7-5.9,3.4-1.5-1.3-2.5-.3-3.9h2.1c1,1,1.9,2,2.9,3-2.4,3.4,1.4,6.3.9,9.6h-1.7c-.1-1.4-.3-2.7-2.2-2.8Z"/>
  <path class="cls-9" d="M17.7,12.7c0,2.6,1.5,4.4,3.2,6.1-.9,2.6-3.3,1.4-5,1.8v-7.8h1.9-.1Z"/>
  <path class="cls-10" d="M15.8,12.7v7.8c-1.5,1-2.7,1.1-3.1-1,1.2-.7.9-1.9.8-3,.5-1.4-.4-3.7,2.2-3.9h0Z"/>
  <path class="cls-5" d="M25.7,18.6c1.8,0,2,1.4,2.2,2.8-1.4,0-2.8,0-4.2.1.3-1.2.8-2.3,2.1-2.9h-.1Z"/>
  <path class="cls-8" d="M13.6,16.6c0,1.1.4,2.2-.8,3h-1.9c.5-1.4,1.6-2.2,2.7-3Z"/>
  <path class="cls-3" d="M83.4,16.7v1.9h-1.9c0-1.3.6-2,1.9-2h0Z"/>
  <path class="cls-3" d="M67.5,22.5c0-.5,0-1.4.8-1.2.5,0,.8.8,1.2,1.2h-2Z"/>
  <path class="cls-2" d="M64.6,12.7v-3.9c3,0,5.9-.2,8.7,1.1,1.6.7,3.1.5,4.7-.3,2.1-1.1,4.1-1.2,5.5,1.1-3.2.5-.8,2.6-1.1,3.9-1.7,1.1-2.6,0-3.5-1.2-.6-.8-1.1-2.2-2.4-.7-.7,0-1.4.1-2.1.2-.6,0-1.3-.2-1.9-.2-2.7-4.3-5.3,0-7.9,0Z"/>
  <path class="cls-2" d="M42.8,7.9c-3.3,2.5-7.1,2.8-11,2.8v-2.8h11.1-.1Z"/>
  <path class="cls-6" d="M102.2,8.8v6c-.2,1.3-.9,2-2.3,1.7-2.3-.5-1.5-2.4-1.8-3.8h0c1.3,0,1.9-.8,1.9-2,.3-1,.8-2,2.1-2h.1Z"/>
  <path class="cls-3" d="M82.3,14.6c.3-1.3-2.1-3.4,1.1-3.9.7.4,1.4.8,2,1.2v2.7c0,1.2-.7,2-2,2-.4-.7-.7-1.4-1.1-2.1h0Z"/>
  <path class="cls-2" d="M28.8,11.7c-1-1-1.9-2-2.9-3v-.9c.6-.3,1.3-.6,1.9-.9h2v1c0,1.3.3,2.8-1,3.8Z"/>
  <path class="cls-5" d="M64.5,8.8v1.9c-1.5.1-2.8,0-3-1.9h3Z"/>
  <path class="cls-2" d="M100.1,10.7c0,1.3-.6,2-1.9,2,0-.6,0-1.3,0-1.9.7,0,1.3,0,2-.1Z"/>
  <path class="cls-6" d="M17.7,12.7h-1.1c.7-4.3,5-2.2,7.2-3.9-1,1.4,3.7,2.4.3,3.9-2.1,2.7-4.2.1-6.4,0Z"/>
  <path class="cls-12" d="M27.7,7c-.6.3-1.3.6-1.9.9-.3-.3-.6-.6-.9-.9h2.8Z"/>
  <path class="cls-4" d="M31.7,11.8c2.1.5,4.1,1.1,6.2.9,1.6-.1,3.4-.3,3.9,1.9-4.4,3.3-9.5,1.9-10.1-2.8Z"/>
  <path class="cls-1" d="M44.8,12.6c2.6-2.6,6.7-2.7,9.5,0h-9.5Z"/>
  <path class="cls-9" d="M74.6,17.4c-1.4.4-2.8.8-4.1,1.2,0-1.4-.4-3,1.1-3.9h2.8c0,.9,0,1.9.2,2.8h0Z"/>
  <path class="cls-10" d="M74.4,14.6h-2.8c0-.8,0-1.6.8-2,.6,0,1.3.2,1.9.2v1.7h0Z"/>
  <path class="cls-1" d="M74.4,14.6v-1.7c.7,0,1.4-.1,2.1-.2v4.6c-.6,0-1.2,0-1.8.1,0-.9,0-1.9-.2-2.8h0Z"/>
  <g>
    <path class="cls-11" d="M56.2,28.1l-1-3.5c-6.1,0-12.3,0-18.4,0-6.4,0-12.9.1-19.3,0-3.8-.5-10.4-2-11.5-5.8-.5-4,3.1-7.1,6-9.5,2.8-2.4,6.4-3.3,10.2-3.5,2.9-.2,5.9-.4,8.8-.4,5.3.1,10.6,1.5,16,1.1,2.8-.1,5.6-.2,8.4-.3L53.5,0c-10.4,0-20.8,0-31.2,0-5,.1-10,1.8-13.7,4.9h0c0,0,0,0,0,0C5.2,7.8,1.2,11,.3,15.3c-1.6,7,4.2,13,10.8,14.1,2.7.6,5.6.9,8.5.9,13-.2,25.9,0,38.9.2l-2.3-2.3Z"/>
    <path class="cls-11" d="M113.2,6.7c-3.4-3.8-8.5-6.7-13.7-6.7-14.6,0-29.1,0-43.7,0l2.3,6c11.1-.3,22.3-.3,33.4-.3,4.9.2,11.6-1.3,15.1,3h0c4.7,6.3-2.6,15.4-9.5,16.2-12.9-.4-25.9-.4-38.9-.3l.8,2.8,2.5,3.1h-2.9c12.8,0,25.6,0,38.4-.5,3.8-.5,7.4-1.8,10.2-4.4,5.2-4.3,9.9-12.5,6-18.9Z"/>
  </g>
  <g>
    <path class="cls-12" d="M55.3,6.2c-4.7.1-9.5.3-14.2.5-3.8,0-7.5.2-11.2.2v1h13.1c3.7,1,7.5.9,11.3.8l1.1-2.5Z"/>
    <path class="cls-12" d="M94.4,5.9h-2c-2,1.5-4,1.5-6,0h-2c-4.6,1.6-9.3,1.6-13.9,0h-1.8c-1,1.1-2,1.2-3,0-2.6,0-5.1.2-7.7.2l.2,2.5c1.2,0,2.3,0,3.5.1h3c3,0,5.9,0,8.7,1.1,1.7.7,3.2.5,4.7-.3,2.1-1.1,4.1-1.2,5.5,1.1.6.4,1.3.8,2,1.2,3-1.4,6.7-.3,9.5-2.7,1.5-1.2,1.4,2.4,3.2,1.7.7-.1,1.3-.1,2-.1.3-1.1.7-2,2.1-2v-1.9c-2.7-.5-5.6.9-8-1Z"/>
  </g>
  <g>
    <path class="cls-8" d="M42.7,7.9c-3.2,2.5-7.1,2.8-11,2.8v1.2c2,.5,4,1.1,6.2.9,1.6-.2,3.4-.3,3.9,1.9,1.5,0,1.9-1.5,3-2.1h0c2.6-2.7,6.7-2.7,9.5,0,0,0,0,0,0,0v-3.8"/>
    <path class="cls-8" d="M61.4,8.8c-1.1,0-2.1-.1-3.2-.1l.3,4.1c1.3,0,2.5.4,3.6,1.4,1.1,1,2-.3,2.3-1.5v-2c-1.5,0-2.8,0-3-1.9Z"/>
  </g>
  <g>
    <path class="cls-5" d="M54.3,12.6h-9.4c-1.1.6-1.5,2.1-3,2.1-4.4,3.3-9.5,1.9-10.1-2.8v-4h-2,.3c0,1.4.3,2.9-1,3.9-2.4,3.4,1.4,6.3.9,9.6,2.9,1.2,6,.4,9,1.2,2.2-3.1,4.6-5.7,8.9-3.9,1.3-1.2,2.7-1.8,4.2-2.1l2.2-4Z"/>
    <path class="cls-5" d="M72.5,12.8c-2.7-4.3-5.3,0-7.9,0-.3,1.3-1.2,2.5-2.3,1.5-1.2-1.2-2.4-1.4-3.8-1.4h0l-3.5,3.5c2,.2,3.8.9,5.8,1.6,1.6.6,3.1,1.5,4.9,1.8.3-1.7,1.1-2.5,2.6-1.3.8.7,1.4,1.4,2.3.3,0-1.4-.5-2.9,1.1-3.9,0-.8,0-1.6.8-2Z"/>
  </g>
  <g>
    <path class="cls-3" d="M65.4,19.6c-1.7-.3-3.3-1.2-4.9-1.8-1.8-.7-3.6-1.3-5.5-1.5l.3,5.2c.7.1,1.5.4,2.1,1h8.9c-.3-.9-.7-1.9-1-2.9Z"/>
    <path class="cls-3" d="M52.2,16.4c-1.6.2-3.1.9-4.6,2.2h0c0,2.5,1.3,3,3.4,3,1.1,0,2.3-.2,3.4-.2l-2.1-5Z"/>
  </g>
  <g>
    <path class="cls-9" d="M55.3,21.4h0c0,.1.4,1,.4,1h1.9c-.7-.6-1.5-.9-2.3-1Z"/>
    <path class="cls-9" d="M54.3,21.4h0c-1.1-.1-2.3,0-3.4,0-2.1,0-3.6-.5-3.4-2.9h0c-4.3-1.8-6.7.8-8.9,3.8h16l-.4-1Z"/>
  </g>
  <g>
    <path class="cls-12" d="M54.7,22.5h-16.1c-2.9-.8-6.1,0-9-1.2h-1.7c-1.4.1-2.8.1-4.2.1-2,.2-1.5-2.1-2.7-2.6-.9,2.6-3.2,1.5-5,1.8-1.4,1-2.6,1.1-3.1-1h-1.9v2c1.3,2.9,3.8,2.9,6.3,2.9,6.8,0,13.5,0,20.3,0,5.9.1,11.7.1,17.6,0l-.5-2.1Z"/>
    <path class="cls-12" d="M102,22.4c-1.7-2.5-4-3.9-6.9-4.7-1-1.5-1.9-3.1-3-.1-3.8,3.3-7.3,3.7-8.9,1.1h-1.9c0,1.8-1.8,2.1-3,2.9-2.8,1.8-5.9.6-8.9.9h-11.8l.6,2.1c11.8,0,23.5-.2,35.3.3,2.6,0,6.8,1.3,8.7-2.6h-.2Z"/>
  </g>
</svg>