<?xml version="1.0" encoding="UTF-8"?>
<svg id="Layer_1" data-name="Layer 1" xmlns="http://www.w3.org/2000/svg" viewBox="0 0 585.59 585.84">
  <defs>
    <style>
      .cls-1 {
        fill: #fcdc18;
      }

      .cls-1, .cls-2, .cls-3 {
        stroke-width: 0px;
      }

      .cls-2 {
        fill: #fbb028;
      }

      .cls-3 {
        fill: #fefefe;
      }
    </style>
  </defs>
  <path class="cls-1" d="M50.94,447c-12.62-20.95-25.04-41.97-33.42-65.11C7.54,354.34,1.67,326.03.31,296.7c-2.32-49.99,8.26-97.07,31.07-141.47,21.22-41.31,51.07-75.13,88.97-101.93,29.38-20.78,61.46-35.7,96.34-44.45,30.71-7.7,61.85-10.46,93.51-7.96,52.99,4.17,101.17,21.43,144.78,51.74,10.51,7.31,21.14,14.44,30.56,23.19.34.43.69.86,1.03,1.28,0,0-.02-.03-.02-.03.34.34.68.68,1.02,1.02,0,0-.02-.02-.02-.02.88,1.84,2.09,3.31,4.15,3.9,0,0,.06-.07.06-.07,2.67,4.37,6,8.04,10.77,10.17,0,0,.02.03.02.03-.09,2.18,1.2,3.28,3.07,3.93,0,0-.04,0-.04,0,5.14,8.27,11.42,15.79,17.29,23.44,11.23,14.63,20.22,30.43,27.98,46.91,10.04,21.31,16.99,43.71,21.33,66.97,3.11,16.66,4.4,33.41,5.17,50.25.54,11.97-1.62,23.77-2.87,35.62-2.16,20.5-7.14,40.33-14.06,59.74-8.39,23.54-19.79,45.46-33.87,66.1-10.81,15.84-23.09,30.4-36.89,43.59-16.81,16.06-35.5,29.73-55.64,41.48-15.29,8.92-31.29,16.35-47.85,22.21-16.2,5.73-32.84,10.32-50,12.71-15.95,2.22-31.87,4.01-48.01,4.04-8,.01-15.9-.96-23.87-1.24-7.25-.25-14.55-1.1-21.67-2.46-13.48-2.57-26.97-5.14-40.09-9.36-20.57-6.61-40.41-14.81-59.08-25.75-14.63-8.57-28.54-18.11-41.55-29.03-12.9-10.82-24.53-22.81-35.57-35.49-4.44-5.1-7.46-11.35-12.88-15.61,0,0-.02.05-.02.05.26-1.93-.71-2.89-2.51-3.19ZM109.67,418.05c.44,2.89.53,6.06,4.68,6.09,3.79,4.6,7.43,9.33,11.4,13.77,29.52,33.09,65.59,55.52,108.39,67.47,31.29,8.73,62.92,10.55,94.83,5.88,31.4-4.6,60.64-15.64,87.47-32.78,28.3-18.08,51.38-41.32,69.06-69.88,18.92-30.57,29.24-63.84,31.64-99.69,1.46-21.81-1.86-43.13-5.76-64.42.16-2.32.12-4.57-.49-6.9-5.05-19.14-11.54-37.67-20.61-55.36-15.51-30.25-36.95-55.49-63.97-75.79-28.23-21.21-59.57-35.7-94.74-41.67-22.35-3.79-44.5-5.82-67.2-2.94-20.5,2.61-40.45,6.75-59.66,14.37-19.34,7.67-37.37,17.74-53.92,30.32-14.41,10.96-27.5,23.37-38.76,37.62-11.13,14.09-21.11,28.89-28.61,45.27-6.02,13.15-10.86,26.69-14.4,40.72-2.8,11.11-4.4,22.38-5.63,33.75-1.75,16.13-1.62,32.34.76,48.21,2.13,14.14,5.27,28.22,10.02,41.97,7.68,22.21,18.34,42.62,32.14,61.51.88,1.21,1.45,2.71,3.37,2.39v.09Z"/>
  <path class="cls-2" d="M53.47,450.15c5.42,4.26,8.44,10.51,12.88,15.61,11.04,12.68,22.68,24.67,35.57,35.49,13.01,10.92,26.93,20.46,41.55,29.03,18.67,10.93,38.51,19.14,59.08,25.75,13.13,4.22,26.61,6.79,40.09,9.36,7.13,1.36,14.42,2.21,21.67,2.46,7.96.28,15.87,1.25,23.87,1.24,16.14-.02,32.06-1.82,48.01-4.04,17.17-2.39,33.81-6.98,50-12.71,16.57-5.86,32.57-13.3,47.85-22.21,20.14-11.75,38.83-25.42,55.64-41.48,13.79-13.18,26.08-27.75,36.89-43.59,14.08-20.64,25.48-42.56,33.87-66.1,6.92-19.41,11.9-39.24,14.06-59.74,1.25-11.85,3.41-23.65,2.87-35.62-.76-16.84-2.06-33.59-5.17-50.25-4.34-23.26-11.29-45.65-21.33-66.97-7.77-16.48-16.75-32.28-27.98-46.91-5.87-7.65-12.15-15.17-17.29-23.44,6.28,3.71,10.12,9.82,14.52,15.25,26.46,32.63,45.25,69.24,55.91,109.91,8.9,33.98,11.61,68.5,8.02,103.46-5.23,51.08-22.54,97.74-52.47,139.45-35.43,49.38-81.76,84.59-139.09,105.15-34.58,12.4-70.29,17.85-106.91,16.34-41.26-1.69-80.49-11.78-117.42-30.5-46.76-23.71-84.33-57.66-113.11-101.41-.71-1.08-1.81-2.02-1.58-3.53Z"/>
  <path class="cls-2" d="M502.55,92.08c-4.78-2.14-8.11-5.8-10.77-10.17,4.5,2.43,7.64,6.29,10.77,10.17Z"/>
  <path class="cls-2" d="M491.71,81.97c-2.05-.59-3.27-2.07-4.15-3.9,2.03.61,3.3,2.03,4.15,3.9Z"/>
  <path class="cls-2" d="M505.64,96.04c-1.87-.65-3.16-1.75-3.07-3.93,1.59.86,3.12,1.78,3.07,3.93Z"/>
  <path class="cls-2" d="M50.94,447c1.8.3,2.78,1.26,2.51,3.19-1.53-.52-1.78-2.04-2.51-3.19Z"/>
  <path class="cls-2" d="M486.58,77.1c-.34-.43-.69-.85-1.03-1.28.34.43.69.85,1.03,1.28Z"/>
  <path class="cls-2" d="M487.59,78.09c-.34-.34-.68-.68-1.02-1.02.68,0,1.05.32,1.02,1.02Z"/>
  <path class="cls-2" d="M109.66,417.95c-1.92.32-2.49-1.18-3.37-2.39-13.8-18.9-24.46-39.3-32.14-61.51-4.75-13.76-7.9-27.83-10.02-41.97-2.38-15.87-2.51-32.08-.76-48.21,1.23-11.37,2.83-22.64,5.63-33.75,3.54-14.03,8.38-27.57,14.4-40.72,7.51-16.39,17.48-31.19,28.61-45.27,11.26-14.25,24.35-26.66,38.76-37.62,16.55-12.58,34.58-22.65,53.92-30.32,19.21-7.61,39.16-11.76,59.66-14.37,22.7-2.89,44.85-.85,67.2,2.94,35.17,5.96,66.5,20.46,94.74,41.67,27.02,20.3,48.47,45.54,63.97,75.79,9.07,17.69,15.57,36.22,20.61,55.36.62,2.34.65,4.58.49,6.9-5.1-17.23-10.83-34.2-19.66-49.97-6.04-10.78-12.4-21.33-20.45-31.21-.15.67-.26.87-.2.95,20.74,28.86,33.71,60.85,38.13,96.14,4.21,33.6.36,66.33-11.52,98.09-7.74,20.69-18.58,39.57-32.26,56.92-15.61,19.79-34.18,36.32-55.54,49.43-31.1,19.07-65,29.95-101.54,32.66-36.7,2.72-71.92-3.18-105.7-17.45-25.81-10.91-48.65-26.42-68.59-46.19-20.83-20.65-36.79-44.48-47.88-71.64-6.37-15.61-10.42-31.81-13.04-49.41-1.2,4.67-.02,8.2.46,11.72,2.94,21.35,8.89,41.81,18.04,61.37,5.22,11.17,11.85,21.48,18.04,32.07ZM424.5,256.61c0-5.13-4.21-9.8-9.32-10.53-13.42-1.93-26.82-3.94-40.23-5.91-11.45-1.69-22.87-3.79-34.37-4.88-5.88-.56-9.52-2.75-12.01-7.94-6.69-13.96-13.54-27.85-20.41-41.72-4.49-9.07-9.25-18.01-13.67-27.11-4.39-9.03-15.47-7.9-19.77,1.13-10.62,22.25-21.45,44.4-32.34,66.53-2.24,4.54-5.37,8.31-11.06,8.96-6.4.72-12.78,1.69-19.16,2.64-7.03,1.05-14.03,2.3-21.07,3.3-12.44,1.78-24.95,3.16-37.33,5.25-7.71,1.3-10.91,11.89-5.43,17.38,11.13,11.15,22.47,22.09,33.73,33.1,8.05,7.87,16.59,15.22,24.01,23.73,1.89,2.17,2.83,4.57,2.36,7.29-4.13,23.95-8.42,47.87-12.43,71.85-.59,3.53-2.3,7.13-1.06,10.78,2.62,7.69,8.5,10.89,18.41,5.66,21.88-11.56,43.79-23.07,65.56-34.84,4.35-2.35,8.17-2.06,12.2.06,13.3,7.03,26.55,14.15,39.88,21.12,9.83,5.15,19.64,10.38,29.69,15.08,7.52,3.52,15.83-2.91,14.46-11.02-3.99-23.66-8.02-47.31-12.37-70.9-1.52-8.24-.63-14.6,6.2-20.81,16.73-15.2,32.69-31.25,48.83-47.1,3.11-3.05,7.06-5.85,6.71-11.1Z"/>
  <path class="cls-3" d="M109.66,417.95c-6.2-10.59-12.83-20.91-18.04-32.07-9.15-19.57-15.1-40.02-18.04-61.37-.48-3.52-1.66-7.05-.46-11.72,2.62,17.6,6.67,33.8,13.04,49.41,11.09,27.17,27.05,50.99,47.88,71.64,19.94,19.77,42.78,35.29,68.59,46.19,33.78,14.28,69,20.17,105.7,17.45,36.54-2.71,70.44-13.59,101.54-32.66,21.36-13.1,39.93-29.63,55.54-49.43,13.68-17.35,24.53-36.23,32.26-56.92,11.88-31.75,15.73-64.49,11.52-98.09-4.42-35.29-17.4-67.27-38.13-96.14-.06-.08.05-.27.2-.95,8.06,9.88,14.41,20.42,20.45,31.21,8.83,15.77,14.56,32.74,19.66,49.97,3.9,21.3,7.22,42.61,5.76,64.42-2.4,35.85-12.72,69.12-31.64,99.69-17.68,28.56-40.76,51.8-69.06,69.88-26.83,17.15-56.07,28.18-87.47,32.78-31.9,4.67-63.54,2.86-94.83-5.88-42.81-11.95-78.87-34.37-108.39-67.47-3.96-4.44-7.61-9.17-11.4-13.77-1.29-2.24-2.47-4.57-4.68-6.09v-.09Z"/>
  <path class="cls-2" d="M109.67,418.05c2.22,1.53,3.39,3.86,4.68,6.09-4.16-.04-4.24-3.2-4.68-6.09Z"/>
  <path class="cls-1" d="M424.5,256.6c.35,5.25-3.6,8.05-6.71,11.1-16.14,15.85-32.1,31.9-48.83,47.1-6.83,6.21-7.72,12.57-6.2,20.81,4.35,23.59,8.38,47.24,12.37,70.9,1.37,8.1-6.94,14.53-14.46,11.02-10.05-4.7-19.85-9.94-29.69-15.08-13.33-6.97-26.58-14.09-39.88-21.12-4.03-2.13-7.85-2.41-12.2-.06-21.77,11.76-43.68,23.28-65.56,34.84-9.91,5.24-15.79,2.04-18.41-5.66-1.24-3.65.47-7.25,1.06-10.78,4.01-23.97,8.31-47.89,12.43-71.85.47-2.72-.47-5.11-2.36-7.29-7.42-8.51-15.96-15.87-24.01-23.73-11.26-11.01-22.6-21.96-33.73-33.1-5.48-5.49-2.28-16.07,5.43-17.38,12.39-2.09,24.89-3.47,37.33-5.25,7.04-1.01,14.04-2.25,21.07-3.3,6.37-.95,12.75-1.92,19.16-2.64,5.69-.64,8.82-4.41,11.06-8.96,10.89-22.12,21.73-44.27,32.34-66.53,4.31-9.03,15.39-10.16,19.77-1.13,4.42,9.1,9.18,18.04,13.67,27.11,6.87,13.87,13.72,27.76,20.41,41.72,2.49,5.19,6.14,7.39,12.01,7.94,11.51,1.09,22.92,3.19,34.37,4.88,13.41,1.97,26.82,3.98,40.23,5.91,5.11.73,9.32,5.4,9.31,10.53Z"/>
</svg>