<?xml version="1.0" encoding="UTF-8"?>
<svg id="Layer_1" data-name="Layer 1" xmlns="http://www.w3.org/2000/svg" version="1.1" viewBox="0 0 114.7 30.5">
  <defs>
    <style>
      .cls-1 {
        fill: #8fcb46;
      }

      .cls-1, .cls-2, .cls-3, .cls-4, .cls-5, .cls-6, .cls-7, .cls-8, .cls-9, .cls-10, .cls-11, .cls-12 {
        stroke-width: 0px;
      }

      .cls-2 {
        fill: #81c334;
      }

      .cls-3 {
        fill: #6cbf06;
      }

      .cls-4 {
        fill: #73ba1c;
      }

      .cls-5 {
        fill: #96c950;
      }

      .cls-6 {
        fill: #7abf2b;
      }

      .cls-7 {
        fill: #b9d589;
      }

      .cls-8 {
        fill: #e0d6cc;
      }

      .cls-9 {
        fill: #68bb14;
      }

      .cls-10 {
        fill: #070b03;
      }

      .cls-11 {
        fill: #77d201;
      }

      .cls-12 {
        fill: #9ecc5e;
      }
    </style>
  </defs>
  <path class="cls-10" d="M8.6,5C12.3,1.9,17.3.2,22.3.1,48,0,73.8,0,99.5,0c5.2,0,10.3,2.9,13.7,6.7,3.9,6.4-.8,14.6-6,18.9-2.8,2.6-6.4,3.9-10.2,4.4-25.7,1.1-51.6,0-77.4.3-2.9,0-5.8-.3-8.5-.9C4.5,28.3-1.3,22.3.3,15.3c.9-4.3,4.9-7.5,8.2-10.2h.1ZM106.5,8.7c-3.5-4.3-10.2-2.8-15.1-3-14.8,0-29.6,0-44.4.7-5.4.4-10.7-1-16-1.1-2.9,0-5.9.2-8.8.4-3.8.2-7.4,1.1-10.2,3.5-2.9,2.4-6.5,5.5-6,9.5,1.1,3.8,7.7,5.3,11.5,5.8,6.4.2,12.9,0,19.3.1,20.1.1,40.3-.3,60.3.3,6.9-.8,14.2-9.9,9.5-16.2h-.1Z"/>
  <path class="cls-3" d="M102.2,22.3c-1.9,3.9-6.1,2.7-8.7,2.6-18.6-.9-37.3,0-55.9-.4-6.8-.1-13.5,0-20.3,0-2.5,0-5,0-6.3-2.9,0-.7,0-1.4,0-2,0,0,0,0,0,0,.6,0,1.3,0,1.9,0,.5,2.1,1.7,2,3.1,1,1.8-.3,4.1.8,5-1.8,1.2.5.7,2.8,2.7,2.6,1.4,0,2.8,0,4.2-.1.6,0,1.1,0,1.7,0,2.9,1.2,6.1.4,9,1.2,6.3,0,12.6,0,18.9,0,3,0,6,0,8.9,0,0,0,.5,0,.5,0h.5c.7,0,1.3,0,2,0,3-.3,6.1.9,8.9-.9,1.2-.8,2.9-1.1,3-2.9.6,0,1.3,0,1.9,0,1.6,2.6,5.1,2.2,8.9-1.1,1.1-3,2-1.4,3,.1,2.9.8,5.2,2.2,6.9,4.7Z"/>
  <path class="cls-3" d="M68.5,5.9c.7,0,1.3,0,2,0,4.6,1.6,9.3,1.6,13.9,0,.7,0,1.3,0,2,0,2,1.5,4,1.5,6,0,.7,0,1.3,0,2,0,2.4,1.9,5.3.5,8,1,0,.6,0,1.3,0,1.9-1.4,0-1.8.9-2.1,2-.7,0-1.3,0-2,.1-1.8.7-1.7-2.9-3.2-1.7-2.8,2.4-6.5,1.3-9.5,2.7-.7-.4-1.4-.8-2-1.2-1.4-2.3-3.4-2.2-5.5-1.1-1.5.8-3,1-4.7.3-2.8-1.2-5.7-1.2-8.7-1.1-1,0-2,0-3,0-6.2-.5-12.5.7-18.7-.9-3.7,0-7.4,0-11.1,0-.7,0-1.3,0-2,0,0-.3,0-.7,0-1,3.7,0,7.4-.1,11.2-.2,8.2-.3,16.4-.5,24.6-.8,1,1.2,2,1.1,3,0Z"/>
  <path class="cls-5" d="M11,19.7c0,.7,0,1.4,0,2-1.8.5-3.9.5-4.7-1.2-.9-1.8-.8-3.9.6-5.9,2.1-2.9,4.9-5,7.7-7.1.4,1.5-.4,2.6-.9,3.9-.9,2.7-3.8,4.9-2.7,8.2Z"/>
  <path class="cls-2" d="M11,19.7c-1.1-3.3,1.8-5.5,2.7-8.2.5-1.3,1.3-2.4.9-3.9,0,0,.1.1.1.1.9.2,1.7,0,2.1-.9.8-1.1,2-.7,3.1-.8,1.5,1.5,3.4.6,5,1,.3.3.6.6.9.9,0,.3,0,.6,0,.9-.7,0-1.4,0-2.1,0-2.2,1.7-6.4-.4-7.2,3.9-.3,0-.5,0-.8,0-2.6.2-1.7,2.5-2.2,3.9-1.1.8-2.2,1.6-2.7,3h0Z"/>
  <path class="cls-4" d="M102.2,22.3c-1.7-2.5-4.1-3.9-6.9-4.7,2.5-.8,1.3-3.7,3-4.9.3,1.4-.5,3.3,1.8,3.8,1.3.3,2.1-.4,2.3-1.7,2,.2,2.8,2,4.1,3.1-.7,2.1-2.4,3.4-4.2,4.5Z"/>
  <path class="cls-1" d="M106.4,17.8c-1.3-1.1-2.1-2.9-4.1-3.1,0-1.4,0-2.7,0-4.1,1.9.2,3.6.2,4.1-2.1.9,3.1,3,6.2,0,9.3Z"/>
  <path class="cls-1" d="M24.9,7c-1.7-.4-3.6.5-5-1,7-.3,14.1-1.6,21,.7-3.7,0-7.4.1-11.2.2-.7,0-1.4,0-2,0-.9,0-1.9,0-2.8,0Z"/>
  <path class="cls-4" d="M106.5,8.5c-.5,2.3-2.3,2.3-4.1,2.1,0-.6,0-1.3,0-1.9,0-.6,0-1.3,0-1.9.3-.3.7-.6,1-1,.7.6,1.4,1.2,2.1,1.8.3.3.7.7,1,1,0,0,.1-.2.1-.2Z"/>
  <path class="cls-11" d="M84.4,5.9c-4.6,1.6-9.3,1.6-13.9,0,4.6,0,9.3,0,13.9,0Z"/>
  <path class="cls-11" d="M103.2,5.9c-.3.3-.7.6-1,1-2.6-.5-5.5.9-8-1,3-.3,6-.4,9,0Z"/>
  <path class="cls-11" d="M92.3,5.9c-2,1.4-4,1.5-6,0,2,0,4,0,6,0Z"/>
  <path class="cls-11" d="M68.5,5.9c-1,1.2-2,1.2-3,0,1,0,2,0,3,0Z"/>
  <path class="cls-5" d="M16.8,6.8c-.5.9-1.2,1-2.1.9.4-1,1.3-.8,2.1-.9Z"/>
  <path class="cls-1" d="M106.3,8.7c-.3-.3-.7-.7-1-1,.6.1,1,.3,1,1Z"/>
  <path class="cls-6" d="M29.8,7.9c.7,0,1.3,0,2,0,0,.9,0,1.9,0,2.8v1.2c.6,4.7,5.7,6.1,10.1,2.8,1.5,0,1.9-1.5,3-2.1,3.2,0,6.3,0,9.5,0,2.6.7,5.5-.6,7.9,1.7,1.1,1,2-.2,2.3-1.5,2.6,0,5.2-4.3,7.9,0-.9.4-.9,1.2-.8,2-1.6,1-1,2.5-1.1,3.9-.9,1.1-1.5.4-2.3-.3-1.5-1.2-2.3-.4-2.6,1.3-1.8-.3-3.3-1.2-4.9-1.8-4.4-1.5-8.9-2.7-12.9.8-4.3-1.8-6.7.8-8.9,3.9-3-.8-6.1,0-9-1.2.5-3.3-3.3-6.2-.9-9.6,1.3-1,.9-2.5,1-3.8Z"/>
  <path class="cls-2" d="M47.6,18.6c4.1-3.6,8.6-2.4,12.9-.8,1.6.6,3.2,1.5,4.9,1.8.3,1,.7,2,1,2.9-3,0-6,0-8.9,0-2-1.8-4.4-.8-6.6-.9-2.1,0-3.5-.5-3.4-2.9Z"/>
  <path class="cls-12" d="M98.3,12.7c-1.7,1.2-.5,4.2-3,4.9-.9-1.5-1.9-3.1-3-.1-1.9-1.8-4.5-2.3-6.9-2.9,0-.9,0-1.8,0-2.7,3-1.4,6.7-.2,9.5-2.7,1.5-1.3,1.4,2.4,3.2,1.7,0,.6,0,1.3.1,1.9h0Z"/>
  <path class="cls-1" d="M81.4,18.7c-.1,1.9-1.8,2.1-3,2.9-3.1-.4-3-2.1-2-4.3,0-1.5,0-3,0-4.6,1.3-1.5,1.8,0,2.4.7.9,1.2,1.8,2.2,3.5,1.2.4.7.7,1.4,1.1,2.1h0c-1.3,0-1.9.7-1.9,2Z"/>
  <path class="cls-9" d="M76.4,17.3c-1,2.2-1,4,2,4.3-2.8,1.8-6,.6-8.9.9-.4-.4-.7-1.1-1.2-1.2-.8-.2-.7.7-.8,1.2h-.5s-.5,0-.5,0c-.3-1-.7-2-1-2.9.3-1.6,1.1-2.4,2.6-1.3.8.6,1.4,1.4,2.3.3,1.4-.4,2.8-.8,4.1-1.2.6,0,1.2,0,1.8-.1Z"/>
  <path class="cls-7" d="M23.7,21.4c-2,.2-1.5-2.1-2.7-2.6-1.7-1.7-3.2-3.5-3.2-6.1,2.1,0,4.3,2.7,6.4,0,0,2.1,3.3,3.3,1.7,5.9-1.3.5-1.8,1.7-2.1,2.9Z"/>
  <path class="cls-1" d="M47.6,18.6c-.2,2.4,1.3,2.9,3.4,2.9,2.2,0,4.6-.8,6.6.9-6.3,0-12.6,0-18.9,0,2.2-3,4.6-5.6,8.9-3.9Z"/>
  <path class="cls-4" d="M85.4,14.6c2.5.7,5,1.1,6.9,2.9-3.8,3.3-7.3,3.7-8.9,1.1,0-.6,0-1.3,0-1.9,0,0,0,0,0,0,1.3,0,1.9-.8,2-2Z"/>
  <path class="cls-1" d="M25.7,18.6c1.6-2.6-1.6-3.8-1.7-5.9,3.4-1.5-1.3-2.5-.3-3.9.7,0,1.4,0,2.1,0,1,1,1.9,2,2.9,3-2.4,3.4,1.4,6.3.9,9.6-.6,0-1.1,0-1.7,0-.1-1.4-.3-2.7-2.2-2.8Z"/>
  <path class="cls-1" d="M17.7,12.7c0,2.6,1.5,4.4,3.2,6.1-.9,2.6-3.3,1.4-5,1.8,0-2.6,0-5.2,0-7.8.3,0,.5,0,.8,0,.4,0,.7,0,1.1,0Z"/>
  <path class="cls-8" d="M15.8,12.7c0,2.6,0,5.2,0,7.8-1.5,1-2.7,1.1-3.1-1,1.2-.7.9-1.9.8-3,.5-1.4-.4-3.7,2.2-3.9Z"/>
  <path class="cls-6" d="M25.7,18.6c1.8,0,2,1.4,2.2,2.8-1.4,0-2.8,0-4.2.1.3-1.2.8-2.3,2.1-2.9Z"/>
  <path class="cls-5" d="M13.6,16.6c0,1.1.4,2.2-.8,3-.6,0-1.3,0-1.9,0,.5-1.4,1.6-2.2,2.7-3Z"/>
  <path class="cls-2" d="M83.4,16.7c0,.6,0,1.3,0,1.9-.6,0-1.3,0-1.9,0,0-1.3.6-2,1.9-2Z"/>
  <path class="cls-2" d="M67.5,22.5c0-.5,0-1.4.8-1.2.5,0,.8.8,1.2,1.2-.7,0-1.3,0-2,0Z"/>
  <path class="cls-5" d="M44.8,12.6c-1.1.6-1.5,2.1-3,2.1-.5-2.2-2.3-2.1-3.9-1.9-2.2.2-4.2-.4-6.2-.9,0-.4,0-.8,0-1.2,3.9,0,7.8-.3,11-2.8,6.2,1.6,12.5.4,18.7.9.2,1.9,1.5,2,3,1.9,0,.7,0,1.3,0,2-.3,1.2-1.2,2.5-2.3,1.5-2.4-2.2-5.3-1-7.9-1.7-2.8-2.6-6.9-2.6-9.5,0Z"/>
  <path class="cls-4" d="M64.6,12.7c0-.7,0-1.3,0-2,0-.6,0-1.3,0-1.9,3,0,5.9-.2,8.7,1.1,1.6.7,3.1.5,4.7-.3,2.1-1.1,4.1-1.2,5.5,1.1-3.2.5-.8,2.6-1.1,3.9-1.7,1.1-2.6,0-3.5-1.2-.6-.8-1.1-2.2-2.4-.7-.7,0-1.4.1-2.1.2-.6,0-1.3-.2-1.9-.2-2.7-4.3-5.3,0-7.9,0Z"/>
  <path class="cls-4" d="M42.8,7.9c-3.3,2.5-7.1,2.8-11,2.8,0-.9,0-1.9,0-2.8,3.7,0,7.4,0,11.1,0Z"/>
  <path class="cls-12" d="M102.2,8.8c0,.6,0,1.3,0,1.9,0,1.4,0,2.7,0,4.1-.2,1.3-.9,2-2.3,1.7-2.3-.5-1.5-2.4-1.8-3.8,0,0,0,0,0,0,1.3,0,1.9-.8,1.9-2,.3-1,.8-2,2.1-2Z"/>
  <path class="cls-2" d="M82.3,14.6c.3-1.3-2.1-3.4,1.1-3.9.7.4,1.4.8,2,1.2,0,.9,0,1.8,0,2.7,0,1.2-.7,2-2,2-.4-.7-.7-1.4-1.1-2.1Z"/>
  <path class="cls-4" d="M28.8,11.7c-1-1-1.9-2-2.9-3,0-.3,0-.6,0-.9.6-.3,1.3-.6,1.9-.9.7,0,1.4,0,2,0,0,.3,0,.7,0,1,0,1.3.3,2.8-1,3.8Z"/>
  <path class="cls-6" d="M64.5,8.8c0,.6,0,1.3,0,1.9-1.5.1-2.8,0-3-1.9,1,0,2,0,3,0Z"/>
  <path class="cls-4" d="M100.1,10.7c0,1.3-.6,2-1.9,2,0-.6,0-1.3-.1-1.9.7,0,1.3,0,2-.1Z"/>
  <path class="cls-12" d="M17.7,12.7c-.3,0-.7,0-1.1,0,.7-4.3,5-2.2,7.2-3.9-1,1.4,3.7,2.4.3,3.9-2.1,2.7-4.2.1-6.4,0Z"/>
  <path class="cls-3" d="M27.7,7c-.6.3-1.3.6-1.9.9-.3-.3-.6-.6-.9-.9.9,0,1.9,0,2.8,0Z"/>
  <path class="cls-9" d="M31.7,11.8c2.1.5,4.1,1.1,6.2.9,1.6-.1,3.4-.3,3.9,1.9-4.4,3.3-9.5,1.9-10.1-2.8Z"/>
  <path class="cls-7" d="M44.8,12.6c2.6-2.6,6.7-2.7,9.5,0-3.2,0-6.4,0-9.5,0Z"/>
  <path class="cls-1" d="M74.6,17.4c-1.4.4-2.8.8-4.1,1.2.1-1.4-.4-3,1.1-3.9.9,0,1.9,0,2.8,0,0,.9.1,1.9.2,2.8Z"/>
  <path class="cls-8" d="M74.4,14.6c-.9,0-1.9,0-2.8,0,0-.8,0-1.6.8-2,.6,0,1.3.2,1.9.2,0,.6,0,1.1,0,1.7Z"/>
  <path class="cls-7" d="M74.4,14.6c0-.6,0-1.1,0-1.7.7,0,1.4-.1,2.1-.2,0,1.5,0,3,0,4.6-.6,0-1.2,0-1.8.1,0-.9-.1-1.9-.2-2.8Z"/>
</svg>