<?xml version="1.0" encoding="UTF-8"?>
<svg id="Layer_1" data-name="Layer 1" xmlns="http://www.w3.org/2000/svg" version="1.1" viewBox="0 0 100 100">
  <defs>
    <style>
      .cls-1 {
        fill: #000;
        stroke-width: 0px;
      }
    </style>
  </defs>
  <path class="cls-1" d="M28.7,23.9c0-2.3,0-4.3,0-6.3.2-3.9,1.5-5.9,5.4-6.1,8.3-.5,16.6-1,24.9-.7,7,.2,9.8,3.8,9.9,10.8,0,.7,0,1.5,0,2.5,2.5.1,4.7.3,7,.4,5.5,0,11.1,0,16.6,0,3.2,0,5.7,1.6,6.6,5.2.7,2.8,1,5.7,1,8.5-.3,13.8-.7,27.5-1.1,41.3-.2,6.9-2.8,10-9.7,10-17.9.1-35.7-.1-53.6-.3-6.1,0-12.2-.2-18.3-.3-3,0-5.9-.2-8.8-.6-4.1-.5-6.8-2.8-7.2-6.9-.5-4.9-.5-9.8-.6-14.7-.2-6.8-.3-13.6-.4-20.4,0-4.2-.2-8.4,0-12.6.2-7.4,2.7-9.7,10-9.7,6.1,0,12.2,0,18.6,0ZM37.6,67.9c1.3-5.5,2.1-6.5,5.4-6.6,3-.1,6-.4,8.9,0,6.2,1,6.2-.5,7.9,6.1,0,.2.2.3.3.4h36.1c0-5.1,0-10.2,0-15.2,0-6.6.3-13.2.2-19.8,0-3.9-1.3-4.9-5.2-5.2-.8,0-1.5-.2-2.3-.2-26.3-.2-52.6-.4-78.8-.6-5.2,0-6.7,1.4-6.7,6.7,0,10.4.4,20.8.4,31.2,0,2.3.9,2.7,2.9,2.7,8.4,0,16.8.3,25.2.4,1.9,0,3.8,0,5.6,0ZM4,70.9c0,2.3,0,4.5,0,6.8,0,5.3,1.8,7.1,7,7.2,24,.4,48,.8,72,1.2,2.4,0,4.8,0,7.2-.1,3.4-.2,4.8-1.5,5.2-4.9.3-2.6.1-5.2.4-7.7.2-1.8-.7-2.3-2.3-2.3-3.3,0-6.7-.3-10-.3-7.8,0-15.6,0-23.3,0-.5,1.8-.7,2.8-1,3.8-.6,1.8-1.7,2.9-3.8,2.9-3.7,0-7.4,0-11.1,0-2.9,0-4.7-1.3-5.3-4.2-.1-.6-.4-1.3-.7-2.3H4ZM52.6,73.2l.4.7c1-.6,2.7-1.3,2.7-1.9,0-2.2,2-5.5-1.5-6.3-3.6-.8-7.4-.6-11.1-.8-.3,0-.9.4-.9.6,0,2.2-.3,4.6.3,6.7.2.8,2.3,1.5,3.5,1.6,2.2,0,4.3-.4,6.5-.6ZM60.6,23.8c-.3-3.4-1.5-4.9-4.7-5-5.2-.2-10.5,0-15.8.2-1.2,0-2.5,1.3-3.3,2.4-.7,1-.5,2.4,1.2,2.4,7.4,0,14.9,0,22.5,0ZM64.4,24.7c2.3-5.6,0-10.1-5-10.4-7.1-.4-14.3-.2-21.5,0-5.7.1-6.6,1.2-6.4,6.9,0,.9.8,1.7,1.2,2.6.4-.8,1-1.6,1-2.5.2-3.5,1.3-5.2,4.6-5.3,6.3-.4,12.6-.6,18.9-.5,3.9,0,6.1,2.3,6.7,6.2.1.7.2,1.5.3,3Z"/>
</svg>