<?xml version="1.0" encoding="UTF-8"?>
<svg id="Layer_1" data-name="Layer 1" xmlns="http://www.w3.org/2000/svg" version="1.1" viewBox="0 0 125 125">
  <defs>
    <style>
      .cls-1 {
        fill: #000;
        stroke-width: 0px;
      }
    </style>
  </defs>
  <path class="cls-1" d="M124.5,30.3v62.5c-2,6.9-6.4,11.2-13.5,12.3-3.2.5-6.5.6-9.7.6-25.8,0-51.7-.2-77.5-.4-2.5,0-5-.2-7.5-.5-8.5-1-12.8-4.7-14.4-13.1-.8-4.2-1-8.6-1.1-12.9-.2-14.6-.4-29.1-.2-43.7,0-6.1.7-12.5,7.4-15.8h22.5c1.3.1,2.6.4,3.9.4,16.5.1,32.9.2,49.4.3,9.5,0,18.9,0,28.4.3,5.3.1,9,2.9,11.2,7.8.3.7.7,1.5,1,2.2ZM62.8,101.3h0c4.5,0,9,0,13.5,0,10.8,0,21.7,0,32.5-.2,7-.2,11.1-4.1,11.8-11.1.4-3.4.3-6.8.3-10.2,0-8.3,0-16.7,0-25,0-6.7.6-13.5.6-20.2,0-6.1-3.3-10.1-8.3-10.8-2.4-.3-4.8-.5-7.2-.5-9.4,0-18.8,0-28.2,0-19.3-.2-38.7-.4-58-.5-2.9,0-5.9,0-8.7.6-1.6.3-3.8,1.3-4.5,2.6-1.2,2.2-2,4.9-2,7.4-.1,13.9-.2,27.8.1,41.7.1,5.9,1.1,11.8,1.8,17.6.6,4.2,3.4,6.7,7.4,7.4,3.3.6,6.8,1,10.2,1,12.9.1,25.8,0,38.7,0Z"/>
  <path class="cls-1" d="M26.4,72.3c-5.9-5.8-6.5-12.9-5.4-20.3.7-5,3.9-7.5,8.9-7.7,1.7,0,3.5,0,5.2,0,2.5.2,4.1,1.7,5.3,3.7,4.1,6.6,2,19.6-4.3,23.4-.3.2-.6.3-.9.5,0,.3,0,.5,0,.8,1.4.4,2.8.9,4.3,1.1,4.1.5,7.8,1.7,10.4,5.2,4,5.4,1.8,10.6-4.7,11.6-.5,0-1,.1-1.5.1-8.7-.1-17.5-.2-26.2-.5-3.3,0-4.8-1.8-4.7-5.2,0-4.3,2.2-7.4,6-9.4,2.4-1.3,4.9-2.3,7.5-3.5ZM31.2,73.1c-2.9,1.5-5.6,2.7-8,4.2-2,1.3-4.1,2.7-5.4,4.6-1.9,2.6-.8,4.4,2.6,4.4,7.7,0,15.5-.2,23.2,0,2.5,0,2.5-1.6,3.1-3.1.7-1.6-.1-2.7-1.4-3.2-2.1-.9-4.3-1.6-6.6-2.1-3.2-.7-6.5-1-7.5-4.7ZM24.5,55.8s0,0,0,0c0,.6-.1,1.2,0,1.7.7,2.9.9,6,2.4,8.5,2.2,3.9,6.3,3.9,8.5,0,1.6-2.9,2.7-6.3,3-9.6.5-5.6-.8-7-6.2-8.4-4.9-1.3-7,.1-7.6,5.1,0,.8,0,1.7-.1,2.5Z"/>
  <path class="cls-1" d="M94,86.1c-11.1-.9-22.2-1.7-33.3-2.6-.8,0-1.7-.5-2.4-1-.3-.2-.4-1.4-.1-1.6.6-.5,1.4-.9,2.1-.9,5.6.3,11.3.7,16.9.9,9.8.4,19.6.7,29.4,1.1.9,0,1.9,0,2.6.4.3.2.5,1.3.3,1.8-.3.5-1.1,1-1.7,1-4.6,0-9.1,0-13.7,0v.7Z"/>
  <path class="cls-1" d="M84,50.7c7.7,0,15.5,0,23.2,0,1.2,0,2.7,0,2.4,1.6-.1.6-1.5,1.4-2.3,1.4-15.5-.1-30.9-.3-46.4-.5-.3,0-.8,0-1,0-.7-.6-1.4-1.3-2-2,.7-.5,1.5-1.3,2.2-1.3,5.4,0,10.8.1,16.2.2,2.6,0,5.2,0,7.7,0,0,.2,0,.5,0,.7Z"/>
  <path class="cls-1" d="M83.8,68.8c-7.5,0-15,0-22.5,0-.6,0-1.3.2-1.7,0-.9-.5-1.6-1.2-2.5-1.8.8-.5,1.6-1.5,2.4-1.6,5.2-.2,10.3-.3,15.5-.2,10.7.3,21.5.7,32.2,1.1.3,0,.8,0,1,0,.6.5,1.2,1.1,1.8,1.7-.7.5-1.3,1.3-2,1.3-4.3,0-8.7-.2-13-.3-3.7,0-7.5,0-11.2,0,0-.1,0-.2,0-.3Z"/>
  <path class="cls-1" d="M63,25.9c4-.2,6,1.2,6.4,4.2.4,3-1.8,5.8-5.4,6.3-1.6.2-3.3,0-4.9-.4-2.9-.9-4-2.7-3.7-5.1.3-2.6,2-4.4,4.9-4.8.9-.1,1.8,0,2.7,0ZM62.3,34c1.4-1.4,3.2-2.3,3.2-3.1-.1-2.5-2.7-1-4.1-1.8-.4-.2-1.6,1.2-2.4,1.9,1,.9,1.9,1.7,3.4,3.1Z"/>
</svg>