<?xml version="1.0" encoding="utf-8"?>
<!-- Generator: Adobe Illustrator 28.4.1, SVG Export Plug-In . SVG Version: 6.00 Build 0)  -->
<svg version="1.1" id="Layer_1" xmlns="http://www.w3.org/2000/svg" xmlns:xlink="http://www.w3.org/1999/xlink" x="0px" y="0px"
	 viewBox="0 0 497.8 289.9" style="enable-background:new 0 0 497.8 289.9;" xml:space="preserve">
<style type="text/css">
	.st0{fill:#FFFFFF;}
</style>
<path class="st0" d="M248.2,195.9c2-2.3,3.2-3.9,4.6-5.3c56.8-56.8,113.6-113.7,170.4-170.4c8.1-8.1,17.5-13.8,29.6-13.3
	c12.5,0.6,22.2,6.1,29,16.7c8.7,13.6,5.8,33.2-5.8,44.6c-66.7,66.2-133,132.9-199.5,199.3c-8.5,8.5-18.4,14.2-31.1,13.3
	c-7.8-0.6-15-3.2-20.4-8.6c-67.6-67.4-135.1-135-202.6-202.5C11.9,59.2,7.2,46.9,10.9,32c3-12.3,14.5-22.9,26.9-25.2
	C51,4.3,61.8,8.3,71.2,17.7C128.8,75.4,186.4,133,244,190.7C245.4,192,246.5,193.8,248.2,195.9z"/>
</svg>
