<?xml version="1.0" encoding="utf-8"?>
<!-- Generator: Adobe Illustrator 28.4.1, SVG Export Plug-In . SVG Version: 6.00 Build 0)  -->
<svg version="1.1" id="Layer_1" xmlns="http://www.w3.org/2000/svg" xmlns:xlink="http://www.w3.org/1999/xlink" x="0px" y="0px"
	 viewBox="0 0 3894.3 2913.4" style="enable-background:new 0 0 3894.3 2913.4;" xml:space="preserve">
<style type="text/css">
	.st0{fill:#6557A5;}
	.st1{fill:#EE3D6F;}
</style>
<path class="st0" d="M32.8,648.8c-10.9,25.5-29.4,68-32.4,126.6c-9.6,182.9,144.1,245.1,205.1,416
	c75.6,212.1-106.3,270.1-32.4,470.3c35.5,96.2,90,116.9,377.7,352.8c239.1,196.1,178,162.5,442.4,379.8
	c303.8,249.7,455.8,374.6,528.9,407c366.4,162.9,922.8,153.7,1100.8-63.3c135.7-165.4-36.1-345.1,108-470.3
	c173.6-151.2,486.6,55.5,777-63.3c378.4-154.8,421.9-740.2,366.9-1076.3c-15.2-93-118-721.7-658.4-940.6
	c-211.4-85.7-291-28-863.3-27.2C1358.2,161.8,1189.1-12,712.7,142.3C342.2,262.5,106.9,476.9,32.8,648.8z"/>
<path class="st1" d="M-724-454"/>
</svg>
