<?xml version="1.0" encoding="UTF-8"?>
<svg id="Layer_1" data-name="Layer 1" xmlns="http://www.w3.org/2000/svg" version="1.1" viewBox="0 0 1185.5 1484.9">
  <defs>
    <style>
      .cls-1 {
        fill: #ef3f70;
        stroke-width: 0px;
      }
    </style>
  </defs>
  <path class="cls-1" d="M301,12.3c633.2-.3,733.5-24,829.3,18.1,17.5,7.7,32.3,22.8,34.5,41.8,9.5,82.2,20.1,275.4-15.3,615.4-9,86.2-14,172.8-15.1,259.4-5.3,417.8,28.6,525.3-53.9,527.6-518.2-10.8-558.8-18.8-955.1,0-38.9,1.8-74.5-22-87.2-58.8C3,1313.6,11.4,1063.2,7.6,617.6,14.1,362.5,2,140.8,3.4,46.9c.4-18.3,15.7-32.9,33.9-34.6,79-7.8,185.4-2,263.7,0h0Z"/>
</svg>