<?xml version="1.0" encoding="UTF-8"?>
<svg id="Layer_1" data-name="Layer 1" xmlns="http://www.w3.org/2000/svg" version="1.1" viewBox="0 0 1201.5 902.9">
  <defs>
    <style>
      .cls-1 {
        fill: #6558a5;
        stroke-width: 0px;
      }
    </style>
  </defs>
  <path class="cls-1" d="M1181,366.9C1144.9,129.2,808.4-10.4,546.5,14.7,315.9,36.9,29.9,197.7,17.8,424.1c-4.3,79.4,25.7,157,78,225.5,12.5,16.4,12,39.1-.9,55.2,0,0-.2.2-.2.3-24.1,28.2-67,111.9-45,143.8h0c21.8,28.4,100.8,0,135.1-10.5,17.8-6.4,42.8-15,64.7-26.5,13.5-7.1,29.6-7.1,43.1,0,100.7,53.6,217.8,84.1,330.9,78.7,296.9-14.3,594.9-277.6,557.6-523.6Z"/>
</svg>