<?xml version="1.0" encoding="UTF-8"?>
<svg id="Layer_1" data-name="Layer 1" xmlns="http://www.w3.org/2000/svg" version="1.1" viewBox="0 0 275 275">
  <defs>
    <style>
      .cls-1 {
        fill: #000;
        stroke-width: 0px;
      }
    </style>
  </defs>
  <path class="cls-1" d="M268,36.2c0-2.3,0-4.6-.1-6.9-.8-13.8-12.1-26.4-27.9-26.9h0c-.9,0-1.8-.2-2.7-.2H36.9c-1.7,0-3.4,0-5.1.3-15,2.6-24.8,14.4-24.8,30.1v159.1c0,19.2,15.7,30.1,28.4,29.9h0c11.2,0,22.4.2,33.6,0,2.8,0,3.3.9,3.3,3.4,0,12.9,0,25.8,0,38.7s.8,6.8,4.4,8.5c3.7,1.7,6.5,0,9.2-2.4,16.8-15.3,33.7-30.6,50.4-45.9,1.7-1.6,3.4-2.2,5.7-2.2h96.8c4.1,0,8.1-.7,11.8-2.5,11.8-5.7,17.4-15.3,17.4-28.5V36.1h0ZM42.9,103.8c0-11.5,10.9-21.2,22-20.9,11.9.3,21.8,10.6,21.5,22.4-.4,12.3-10.4,21.8-22.7,21.4-12-.4-21.1-10.5-20.7-22.9h0ZM151.2,121.7c-6.9,5.6-14.6,6.2-22.7,3.1h0c-9.3-3.8-14.6-15.7-12-26,3.6-14.4,22.6-21.8,35.4-10.5.7.6,1.3,1.2,2,1.8h0c8.9,11.2,5.7,24.7-2.8,31.5h0ZM210.1,126.5c-12,0-21.8-9.7-21.8-21.8s10-22.1,21.8-22.1,21.6,10,21.7,21.8c0,12.1-9.7,22-21.7,22.1Z"/>
</svg>