<?xml version="1.0" encoding="UTF-8"?>
<svg id="Layer_1" data-name="Layer 1" xmlns="http://www.w3.org/2000/svg" version="1.1" viewBox="0 0 1165.9 1074">
  <defs>
    <style>
      .cls-1 {
        fill: #6559a6;
        stroke-width: 0px;
      }
    </style>
  </defs>
  <path class="cls-1" d="M1133.6,427.6C1093.8,142.9,775.5-18,531.3,17.4,316.2,48.7,52.9,247.5,47.5,519.7c-2,95.4,28.1,188,78.7,269.2,12.1,19.4,12.2,46.7.6,66.3,0,0-.2.2-.2.4-21.8,34.3-59.8,135.7-38.4,173.6h0c21.1,33.7,94.3-2,126.1-15.3,16.5-8,39.6-18.9,59.8-33.1,12.4-8.8,27.5-9.1,40.3-.9,95.5,62.3,205.8,96.6,311.4,87.9,277.2-23.1,549.1-345.3,507.9-640h0Z"/>
</svg>