<?xml version="1.0" encoding="UTF-8"?>
<svg id="Layer_1" data-name="Layer 1" xmlns="http://www.w3.org/2000/svg" version="1.1" viewBox="0 0 6708.3 6126.7">
  <defs>
    <style>
      .cls-1 {
        fill: #ee3d6f;
        stroke-width: 0px;
      }
    </style>
  </defs>
  <path class="cls-1" d="M707.4,3358.5c-171.9-177.4-596.7-934.9-596.7-934.9C-.9,2248.6-29.8,2046.6,31.6,1867.7l307.2-897c104.5-305.2,444.5-476.6,808.2-407.3l1415.7,269.4c175.9,33.4,352.9,11.2,500.4-62.9l777.3-390.4c432.8-217.4,1021.6,37.3,1151.2,500.7,1.2,4.5,2.4,8.9,3.6,13.2,19.8,74.4,25.7,150,18.1,223.7l-43.9,427.9c-20.4,198.7,59.1,404.3,217.2,561.8l1301.4,1296.6c170.2,169.4,248.6,394,211.2,604.6l-18.7,105.5c-49.4,278.8-290.4,409.9-604.7,507l-725.5,196.8c-567.6,154-1176.3,197.5-1788.6,127.8,0,0-203.8-1.5-687.3-78.1-252-39.9-891.5-133.8-1063.4-316.4l-1103.5-1192.3v.2Z"/>
</svg>