<?xml version="1.0" encoding="UTF-8"?>
<svg id="Layer_1" data-name="Layer 1" xmlns="http://www.w3.org/2000/svg" version="1.1" viewBox="0 0 6775.7 6186.9">
  <defs>
    <style>
      .cls-1 {
        fill: #ef3f70;
        stroke-width: 0px;
      }
    </style>
  </defs>
  <path class="cls-1" d="M1976.8,6008.5c-323.2,5.2-646.4-5.7-968.6-33.6l-9.9-.9c-380.5-33-663.7-397.6-629.7-811.7.1-1.4.2-2.8.3-4.2,36.1-424.3,12.4-854.5,36.1-1280.5,29-519.7-33.6-359.3-36.1-1329.6-3-1167.4,88.1-1185.2,18.1-1526.7-13.9-67.6-65.3-300.1,0-541.8,15-55.4,48.2-178.4,126.5-246.2,149.3-129.6,372.3,19.4,469.8,73.8h0v.2c309.8,173.1,479.2,21.1,1210.7-73.8,93.1-12.1,586.1-16.2,1572.1-24.6,427.7-3.7,857.5,58.4,1283,0,418.5-57.4,1048.8-202.8,1409.5,123.2,85.9,77.6,125.6,154,144.6,197,107.9,244.5,12,460.3-18.1,886.4-26.3,373.1,37.4,347.8,54.2,1132.6,5,232.1,2.5,378.7,0,615.6-17,1623,27.3,2241.5-18.1,2421.1-182.9,724.1-1028.3,496.4-1690.2,496.4"/>
</svg>