<?xml version="1.0" encoding="UTF-8"?>
<svg id="Layer_1" data-name="Layer 1" xmlns="http://www.w3.org/2000/svg" version="1.1" viewBox="0 0 1390 1219.6">
  <defs>
    <style>
      .cls-1 {
        fill: #bd652c;
        stroke-width: 0px;
      }
    </style>
  </defs>
  <path class="cls-1" d="M262.8,1069.9c-16.3,4.7-52,17.3-87.7,2.3-30-12.6-52.5-41.6-71.5-94.6-48.2-134.5-19.8-272.7-4.6-332.3,35.8-140.1,72.3-133.3,69.2-212.3-4.3-109.1-75.4-157.7-50.8-242.3,15-51.5,55.2-81.4,76.1-96.9,117.7-87.5,245.4-22.1,632.3-25.4,52.4-.5,53.1-1.7,71.5,0,200.7,18.3,400.1,128.5,415.9,302.9,2.2,24.1-3.3,69.1-12,190.9-5.2,73.2-10.9,152.3-9.2,251.5,1.9,115.7,11.4,113.1,2.3,138.4-31.3,87.3-143.8,120.3-274.6,156.9-185.5,51.8-298,83.3-433.8,46.1-130-35.5-215.9-116-323-85.4Z"/>
</svg>