<?xml version="1.0" encoding="utf-8"?>
<!-- Generator: Adobe Illustrator 28.4.1, SVG Export Plug-In . SVG Version: 6.00 Build 0)  -->
<svg version="1.1" id="Layer_1" xmlns="http://www.w3.org/2000/svg" xmlns:xlink="http://www.w3.org/1999/xlink" x="0px" y="0px"
	 viewBox="0 0 1174.8 898.6" style="enable-background:new 0 0 1174.8 898.6;" xml:space="preserve">
<style type="text/css">
	.st0{fill:#EF3F70;}
</style>
<path class="st0" d="M923.2,149.1L415.3,47C289.1-27.2,118.8,20.3,36.5,114.5c-87.3,99.8,26.4,363.4,172.8,523.3
	c113.5,124,361.1,310.7,529.8,231.1C779,850.1,1552.2,342.2,923.2,149.1z M565.8,674.4c-64.3,34.6-90.2,20.6-95.8,17.1
	c-27.8-17-41.4-68.4-62.6-131.4c-65.4-194.5-85.9-192.5-40.2-231.8c0.3-0.2,0.5-0.5,0.8-0.7c30.9-26.1,78.3-14.3,93.2,23.2
	c16.7,41.8,41.1,98.8,70.5,156.4c19.8-15.9,252.2-249.1,293.4-219.1C864.1,316.6,736.1,582.7,565.8,674.4z"/>
</svg>
