<?xml version="1.0" encoding="utf-8"?>
<!-- Generator: Adobe Illustrator 28.4.1, SVG Export Plug-In . SVG Version: 6.00 Build 0)  -->
<svg version="1.1" id="Layer_1" xmlns="http://www.w3.org/2000/svg" xmlns:xlink="http://www.w3.org/1999/xlink" x="0px" y="0px"
	 viewBox="0 0 895.3 841.9" style="enable-background:new 0 0 895.3 841.9;" xml:space="preserve">
<style type="text/css">
	.st0{fill:#6558A5;}
</style>
<path class="st0" d="M880.6,457.4c-16.5-40.2-138.4,15.7-199.4-58.9c-65.1-79.5,26.1-200.8-22.2-282.8C582.1-15,161.3-28.1,49.9,210
	C-44.2,411.1,115.4,721.3,349,787.4C643.2,870.6,908.4,524.9,880.6,457.4z M343.3,597c-64.9,35.1-91.2,20.8-96.8,17.4
	c-28.1-17.2-41.8-69.3-63.2-133.2c-66.1-197.1-86.8-195.1-40.7-234.9c0.3-0.2,0.5-0.5,0.8-0.7c31.2-26.4,79.1-14.5,94.2,23.5
	c16.9,42.3,41.5,100.1,71.2,158.5c20-16.1,254.8-252.5,296.5-222C644.6,234.3,515.3,504,343.3,597z"/>
</svg>
