<?xml version="1.0" encoding="utf-8"?>
<!-- Generator: Adobe Illustrator 28.4.1, SVG Export Plug-In . SVG Version: 6.00 Build 0)  -->
<svg version="1.1" id="Layer_1" xmlns="http://www.w3.org/2000/svg" xmlns:xlink="http://www.w3.org/1999/xlink" x="0px" y="0px"
	 viewBox="0 0 1171.3 876.8" style="enable-background:new 0 0 1171.3 876.8;" xml:space="preserve">
<style type="text/css">
	.st0{fill:#BC642B;}
</style>
<path class="st0" d="M917.8,143L415.4,42.5c-124.8-73-293.3-26.2-374.8,66.4c-86.4,98.2,26.1,357.6,170.9,515
	C323.9,746,568.8,929.6,735.7,851.3C775.2,832.8,1540.1,333.1,917.8,143z M564.3,660c-63.6,34.1-89.3,20.2-94.8,16.9
	c-27.5-16.7-40.9-67.3-61.9-129.3c-64.7-191.4-85-189.4-39.8-228.1c0.3-0.2,0.5-0.5,0.8-0.7c30.5-25.7,77.4-14.1,92.2,22.8
	c16.5,41.1,40.6,97.2,69.8,153.9c19.6-15.7,249.5-245.1,290.3-215.6C859.4,307.8,732.8,569.7,564.3,660z"/>
</svg>
