<?xml version="1.0" encoding="UTF-8"?>
<svg id="Layer_1" data-name="Layer 1" xmlns="http://www.w3.org/2000/svg" version="1.1" viewBox="0 0 70 70">
  <defs>
    <style>

    </style>
  </defs>
  <circle id="Ellipse_18" data-name="Ellipse 18" fill="#27d045" class="cls-4" cx="35" cy="35" r="35"/>
        <circle class="cls-2" cx="35" cy="34.5" r="24.5" fill="none" />
        <circle class="cls-1" cx="35" cy="34.5" r="22.6" stroke="#fff" fill="none" stroke-miterlimit="2.3" stroke-width="2.9px"/>
      <path id="Path_126" data-name="Path 126" class="cls-3" fill="#fff" d="M14.4,47.3l-3.5,12.7,13.2-3.6.7-4.1-8.5,2.7,2.3-8.2-4,.5h0Z"/>
      <path id="Path_127" data-name="Path 127" class="cls-4" fill="#27d045" d="M15.9,55.1l2.7-9.1,6.5,6.2-9.3,3h0Z"/>
    <path id="Path_128" data-name="Path 128" class="cls-3" fill="#fff" d="M25.3,23.3c-1.6,1.1-2.7,2.8-3,4.7-.4,3,1.4,6.2,1.4,6.2,1.9,2.8,4.1,5.4,6.7,7.6,2.2,1.8,4.7,3.1,7.4,4,1.6.6,3.3.8,5,.5,1.5-.4,2.8-1.3,3.7-2.5.3-.6.3-1.1.5-1.7,0-.5,0-1,0-1.5,0-.5-5.7-3.1-6.3-3-.5.2-1,1.2-1.6,2s-.8,1.3-1.4,1.3-3.4-1.1-5.9-3.5c-1.4-1.3-2.6-2.9-3.4-4.6,0,0,.5-.5,1.1-1.4.5-.5.8-1.2,1-1.9,0-.4-2.2-5.9-2.7-6.2-.8,0-1.7,0-2.5,0h0Z"/>
</svg>