<?xml version="1.0" encoding="UTF-8"?>
<svg id="Layer_1" data-name="Layer 1" xmlns="http://www.w3.org/2000/svg" version="1.1" viewBox="0 0 690 690.3">
  <defs>
    <style>
      .cls-1 {
        fill: #fcfdfc;
      }

      .cls-1, .cls-2 {
        stroke-width: 0px;
      }

      .cls-2 {
        fill: #0d9e16;
      }
    </style>
  </defs>
  <path class="cls-2" d="M0,345.7C0,146.8,174-7.2,361.2,1.2c168.2,7.5,315.6,144.7,328,319.3,13.4,188.9-135.6,358.5-323.8,369.8C172.8,701.8,0,544.1,0,345.7Z"/>
  <g>
    <path class="cls-1" d="M105,585.1c5.2-15.3,10.1-29.9,15-44.4,8.5-25.2,17-50.3,25.6-75.4,1.3-3.7,1-6.7-1-10.1-23.5-40.9-34-85-30.5-132,4.7-63.5,31-116.9,79-159.3,46.3-40.9,100.8-59.8,162.5-58.7,104.6,1.9,202,77.8,223.5,183.7,9.4,46.2,8.5,91.7-10.3,135.4-33,76.7-89.5,126.8-172.9,144-54,11.2-105.9,3.7-155-21.4-4.2-2.2-7.8-2.4-12.3-1-39.4,12.7-78.9,25.2-118.4,37.8-1.4.4-2.8.8-5.3,1.4h.1ZM165.8,525c2,.7,3,0,4.1-.4,21.8-6.9,43.5-13.7,65.2-20.8,4.3-1.4,7.5-.8,11.3,1.4,64.2,37.2,129.9,39.7,195.6,5.5,88.3-46,126.6-152.1,89.5-244-44-108.8-173.4-155.6-276.6-98.5-65.1,36.1-99.1,92.7-102.1,166.8-1.7,41.8,10.7,80.1,34.6,114.7,1.9,2.8,2.3,5.1,1.2,8.3-3.2,9-6.3,18-9.3,27.1-4.5,13.3-9,26.6-13.6,40h.1Z"/>
    <path class="cls-1" d="M412.8,456c-11.9.6-22.3-4.4-32.9-8.4-20.3-7.8-40.8-15.3-58.4-28.6-29.4-22.2-52.4-50-71.1-81.3-7.7-12.9-14.9-25.9-17.5-41-4.4-26,2.6-48.1,22.5-66,5.2-4.7,11.2-6.7,18.3-5.9,2.5.3,5.1.6,7.7.4,6.7-.4,10.8,2.7,13.1,8.7,6.2,16.3,12.3,32.7,18.5,49,1.3,3.6.3,6.7-1.3,9.9-3.4,6.4-8.4,11.6-13.5,16.7-7.5,7.6-7.7,8.9-2.4,18.2,18.4,32.1,44.2,55.9,78.4,70.6,6,2.6,8.2,2.2,12.6-2.8,6.2-6.9,12.3-13.9,18.4-20.9,5-5.8,6.9-6.3,14-3,16.1,7.3,31.5,16.1,47.2,24.3,4.1,2.1,5.7,5.2,5.2,9.9-2.5,25.1-10.3,37.6-42.2,47.9-2.8.9-5.9,1.4-8.8,1.8-2.5.3-5.1.3-7.7.5h-.1Z"/>
  </g>
</svg>